<svg width="427" height="496" viewBox="0 0 427 496" fill="none" xmlns="http://www.w3.org/2000/svg">
<path d="M62.6467 460.314C145.825 507.28 280.684 507.28 363.862 460.314C447.041 413.347 447.051 337.219 363.862 290.264C280.674 243.308 145.825 243.297 62.6363 290.264C-20.5523 337.23 -20.542 413.325 62.6467 460.314Z" fill="#F5F5F5"/>
<path d="M26.9776 401.535L30.8387 403.913C31.5314 404.289 32.2971 404.485 33.0738 404.485C33.8504 404.485 34.6161 404.289 35.3089 403.913L213.724 293.58C213.995 293.485 214.231 293.301 214.398 293.054C214.565 292.806 214.655 292.509 214.655 292.203C214.655 291.898 214.565 291.6 214.398 291.353C214.231 291.106 213.995 290.922 213.724 290.827L209.894 288.482C209.201 288.106 208.435 287.91 207.658 287.91C206.882 287.91 206.116 288.106 205.423 288.482L26.9776 398.771C26.7079 398.869 26.4737 399.055 26.3078 399.303C26.1419 399.551 26.0527 399.848 26.0527 400.153C26.0527 400.458 26.1419 400.756 26.3078 401.003C26.4737 401.251 26.7079 401.437 26.9776 401.535Z" fill="#E0E0E0"/>
<path d="M284.545 441.28C314.615 441.28 338.992 426.967 338.992 409.31C338.992 391.653 314.615 377.339 284.545 377.339C254.475 377.339 230.098 391.653 230.098 409.31C230.098 426.967 254.475 441.28 284.545 441.28Z" fill="#E0E0E0"/>
<path d="M347.447 354.282C370.647 354.282 389.454 343.236 389.454 329.61C389.454 315.984 370.647 304.938 347.447 304.938C324.247 304.938 305.439 315.984 305.439 329.61C305.439 343.236 324.247 354.282 347.447 354.282Z" fill="#E0E0E0"/>
<path d="M367.992 304.813C367.93 299.162 371.616 287.418 377.005 280.008C382.394 272.599 390.931 267.125 397.074 269.292C402.793 271.305 402.236 279.312 395.412 284.697C388.588 290.083 378.264 296.862 375.322 306.085L369.076 317.409L367.992 304.813Z" fill="#0B2447"/>
<path opacity="0.1" d="M367.992 304.813C367.93 299.162 371.616 287.418 377.005 280.008C382.394 272.599 390.931 267.125 397.074 269.292C402.793 271.305 402.236 279.312 395.412 284.697C388.588 290.083 378.264 296.862 375.322 306.085L369.076 317.409L367.992 304.813Z" fill="black"/>
<path d="M367.692 312.554C367.776 312.543 367.854 312.504 367.916 312.442C367.977 312.381 368.018 312.299 368.033 312.211C371.347 292.88 385.738 277.022 394.41 273.45C394.507 273.41 394.586 273.331 394.628 273.229C394.671 273.128 394.674 273.012 394.637 272.908C394.619 272.858 394.592 272.812 394.557 272.773C394.522 272.734 394.48 272.703 394.434 272.682C394.388 272.66 394.339 272.649 394.289 272.648C394.238 272.647 394.188 272.656 394.142 272.676C385.294 276.314 370.635 292.438 367.3 312.067C367.291 312.12 367.292 312.174 367.303 312.227C367.314 312.28 367.334 312.329 367.363 312.374C367.391 312.418 367.428 312.455 367.47 312.484C367.513 312.513 367.56 312.533 367.61 312.543L367.692 312.554Z" fill="white"/>
<path d="M370.562 324.863C371.378 321.678 374.939 316.392 380.741 311.979C387.173 307.113 395.349 304.802 397.197 301.053C399.417 296.541 395.845 292.361 389.196 293.312C382.548 294.263 370.965 304.161 369.251 318.825L370.562 324.863Z" fill="#0B2447"/>
<path d="M369.189 321.545C369.263 321.537 369.333 321.507 369.391 321.458C369.45 321.409 369.494 321.344 369.519 321.269C374.846 304.681 386.553 298.731 391.994 297.902C392.095 297.885 392.185 297.828 392.247 297.741C392.308 297.654 392.336 297.545 392.324 297.437C392.318 297.383 392.302 297.331 392.276 297.284C392.251 297.237 392.217 297.196 392.177 297.163C392.137 297.13 392.09 297.106 392.041 297.092C391.992 297.079 391.941 297.076 391.891 297.083C385.872 298.001 374.237 304.061 368.786 321.003C368.77 321.054 368.763 321.108 368.766 321.162C368.769 321.215 368.782 321.268 368.805 321.316C368.827 321.364 368.857 321.407 368.895 321.443C368.932 321.478 368.976 321.506 369.024 321.523C369.076 321.546 369.133 321.554 369.189 321.545Z" fill="white"/>
<path d="M31.7892 398.747L31.0046 398.26C30.3447 397.8 29.7953 397.18 29.4007 396.449C29.0061 395.719 28.7775 394.9 28.7334 394.058V110.667C28.7784 109.823 29.0073 109.003 29.4017 108.271C29.7961 107.54 30.3451 106.917 31.0046 106.454L201.47 1.04179C202.174 0.659923 202.952 0.460938 203.741 0.460938C204.531 0.460938 205.309 0.659923 206.013 1.04179L206.787 1.52837C207.449 1.98919 207.999 2.61109 208.394 3.34333C208.789 4.07556 209.016 4.89739 209.058 5.74175V289.122C209.016 289.966 208.789 290.788 208.394 291.52C207.999 292.252 207.449 292.874 206.787 293.335L36.3317 398.747C35.6276 399.129 34.8496 399.328 34.0605 399.328C33.2713 399.328 32.4933 399.129 31.7892 398.747Z" fill="#0B2447"/>
<path opacity="0.4" d="M209.037 5.3547C208.882 4.094 207.933 3.62953 206.797 4.32623L36.3212 109.749C35.6538 110.2 35.1034 110.824 34.721 111.563L29.4043 108.245C29.7917 107.506 30.3453 106.883 31.0148 106.431L201.47 1.04179C202.174 0.659923 202.952 0.460938 203.741 0.460938C204.53 0.460938 205.308 0.659923 206.012 1.04179L206.797 1.52837C207.401 1.96134 207.912 2.52598 208.299 3.18534C208.685 3.8447 208.936 4.58394 209.037 5.3547Z" fill="white"/>
<path opacity="0.1" d="M35.95 398.935C35.2882 399.217 34.5782 399.347 33.8664 399.314C33.1547 399.282 32.4574 399.088 31.8205 398.747L31.0255 398.26C30.3656 397.798 29.8169 397.176 29.424 396.444C29.0312 395.711 28.8052 394.89 28.7646 394.047V110.667C28.7886 109.823 29.0162 109 29.4254 108.278L34.7421 111.596C34.3203 112.304 34.0685 113.114 34.0091 113.951V397.342C34.0091 398.736 34.8763 399.388 35.95 398.935Z" fill="black"/>
<path d="M54.1603 296.256L53.3757 295.77C52.7158 295.309 52.1664 294.689 51.7718 293.959C51.3772 293.229 51.1486 292.41 51.1045 291.568V240.631C51.1487 239.787 51.3772 238.966 51.7717 238.235C52.1662 237.503 52.7156 236.88 53.3757 236.418L208.139 140.616C208.841 140.234 209.617 140.035 210.405 140.035C211.192 140.035 211.969 140.234 212.671 140.616L213.456 141.102C214.117 141.563 214.668 142.185 215.063 142.917C215.458 143.65 215.685 144.471 215.727 145.316V196.252C215.685 197.095 215.458 197.915 215.063 198.646C214.668 199.376 214.117 199.996 213.456 200.455L58.7028 296.256C57.9987 296.638 57.2207 296.837 56.4315 296.837C55.6424 296.837 54.8643 296.638 54.1603 296.256Z" fill="#EBEBEB"/>
<path d="M215.706 144.929C215.551 143.668 214.601 143.204 213.455 143.9L58.6923 239.713C58.0249 240.164 57.4745 240.788 57.0921 241.527L51.7754 238.209C52.1582 237.464 52.7126 236.836 53.3859 236.384L208.139 140.583C208.841 140.201 209.617 140.002 210.405 140.002C211.192 140.002 211.969 140.201 212.671 140.583L213.455 141.069C214.068 141.501 214.586 142.069 214.975 142.735C215.363 143.402 215.613 144.15 215.706 144.929Z" fill="#FAFAFA"/>
<path d="M58.3103 296.455C57.6481 296.738 56.9375 296.866 56.2256 296.831C55.5136 296.797 54.8167 296.601 54.1808 296.256L53.3756 295.781C52.7204 295.314 52.1759 294.691 51.7852 293.959C51.3945 293.228 51.1685 292.409 51.125 291.567V240.631C51.1489 239.787 51.3766 238.964 51.7857 238.242L57.1024 241.56C56.6976 242.284 56.467 243.105 56.4314 243.948V294.896C56.4211 296.245 57.247 296.898 58.3103 296.455Z" fill="#E0E0E0"/>
<path d="M80.5785 236.295C89.4053 230.832 96.5597 235.079 96.5597 245.784C96.5597 256.489 89.395 269.494 80.5579 274.835C71.7208 280.176 64.5664 275.941 64.5664 265.347C64.5664 254.752 71.7517 241.758 80.5785 236.295Z" fill="#0B2447"/>
<path d="M54.1603 365.284L53.3757 364.797C52.7158 364.337 52.1664 363.716 51.7718 362.986C51.3772 362.256 51.1486 361.437 51.1045 360.595V309.658C51.1487 308.815 51.3772 307.994 51.7717 307.262C52.1662 306.53 52.7156 305.908 53.3757 305.445L208.139 209.643C208.841 209.261 209.617 209.063 210.405 209.062C211.192 209.062 211.969 209.261 212.671 209.643L213.456 210.13C214.118 210.59 214.669 211.212 215.064 211.944C215.459 212.676 215.686 213.499 215.727 214.343V265.28C215.685 266.123 215.458 266.943 215.063 267.673C214.668 268.404 214.117 269.024 213.456 269.482L58.7028 365.284C57.9987 365.666 57.2207 365.865 56.4315 365.865C55.6424 365.865 54.8643 365.666 54.1603 365.284Z" fill="#EBEBEB"/>
<path d="M215.706 213.945C215.551 212.684 214.601 212.231 213.455 212.927L58.6923 308.74C58.0276 309.19 57.4777 309.809 57.0921 310.543L51.7754 307.225C52.1668 306.51 52.7208 305.913 53.3859 305.489L208.139 209.687C208.841 209.305 209.617 209.106 210.405 209.106C211.192 209.106 211.969 209.305 212.671 209.687L213.455 210.174C214.059 210.595 214.572 211.149 214.96 211.799C215.348 212.45 215.603 213.181 215.706 213.945Z" fill="#FAFAFA"/>
<path d="M58.3103 365.472C57.6489 365.756 56.9386 365.886 56.2267 365.853C55.5148 365.821 54.8174 365.627 54.1808 365.284L53.3756 364.797C52.7187 364.332 52.1729 363.709 51.782 362.977C51.3911 362.246 51.1661 361.426 51.125 360.584V309.658C51.1475 308.814 51.3753 307.991 51.7857 307.27L57.1024 310.587C56.6987 311.316 56.4683 312.14 56.4314 312.987V363.934C56.4211 365.273 57.247 365.925 58.3103 365.472Z" fill="#E0E0E0"/>
<path d="M80.5785 305.323C89.4053 299.86 96.5597 304.106 96.5597 314.811C96.5597 325.516 89.395 338.521 80.5579 343.862C71.7208 349.204 64.5664 344.968 64.5664 334.374C64.5664 323.78 71.7517 310.775 80.5785 305.323Z" fill="#0B2447"/>
<path d="M54.1603 180.825L53.3757 180.338C52.7156 179.875 52.1662 179.253 51.7717 178.521C51.3772 177.789 51.1487 176.969 51.1045 176.125V125.233C51.1486 124.39 51.3772 123.571 51.7718 122.841C52.1664 122.111 52.7158 121.491 53.3757 121.03L208.139 25.1842C208.841 24.8025 209.617 24.6035 210.405 24.6035C211.192 24.6035 211.969 24.8025 212.671 25.1842L213.456 25.6708C214.117 26.1292 214.668 26.7491 215.063 27.4795C215.458 28.21 215.685 29.0303 215.727 29.8731V80.8096C215.685 81.654 215.458 82.4758 215.063 83.2081C214.668 83.9403 214.117 84.5622 213.456 85.023L58.7028 180.825C57.9987 181.207 57.2207 181.406 56.4315 181.406C55.6424 181.406 54.8643 181.207 54.1603 180.825Z" fill="#EBEBEB"/>
<path d="M215.706 29.4861C215.551 28.2254 214.601 27.772 213.455 28.4687L58.6923 124.281C58.023 124.725 57.4719 125.346 57.0921 126.084L51.7754 122.766C52.1558 122.022 52.7109 121.397 53.3859 120.953L208.139 25.151C208.841 24.7693 209.617 24.5703 210.405 24.5703C211.192 24.5703 211.969 24.7693 212.671 25.151L213.455 25.6376C214.068 26.067 214.586 26.6334 214.974 27.2977C215.363 27.962 215.612 28.7086 215.706 29.4861Z" fill="#FAFAFA"/>
<path d="M58.3109 181.012C57.6494 181.296 56.9392 181.426 56.2273 181.394C55.5153 181.361 54.818 181.167 54.1814 180.824L53.3761 180.337C52.7147 179.872 52.1651 179.246 51.7723 178.51C51.3794 177.774 51.1543 176.949 51.1152 176.102V125.232C51.1374 124.384 51.3651 123.557 51.776 122.832L57.0927 126.15C56.6874 126.878 56.4568 127.702 56.4216 128.549V179.42C56.4216 180.813 57.2475 181.454 58.3109 181.012Z" fill="#E0E0E0"/>
<path d="M80.5785 120.864C89.4053 115.401 96.5597 119.648 96.5597 130.341C96.5597 141.035 89.395 154.051 80.5579 159.404C71.7208 164.756 64.5664 160.51 64.5664 149.915C64.5664 139.321 71.7517 126.338 80.5785 120.864Z" fill="#0B2447"/>
<path d="M65.0422 245.494L64.2576 245.008C63.5957 244.547 63.045 243.925 62.6503 243.193C62.2556 242.46 62.0281 241.639 61.9863 240.794V189.858C62.0297 189.014 62.2579 188.193 62.6525 187.461C63.047 186.729 63.5969 186.106 64.2576 185.644L219.01 89.8426C219.714 89.4607 220.492 89.2617 221.282 89.2617C222.071 89.2617 222.849 89.4607 223.553 89.8426L224.337 90.3181C224.997 90.7815 225.546 91.404 225.94 92.1357C226.335 92.8674 226.564 93.6879 226.609 94.5315V145.468C226.564 146.312 226.336 147.133 225.941 147.864C225.547 148.596 224.997 149.219 224.337 149.681L69.5743 245.494C68.8721 245.876 68.0957 246.075 67.3082 246.075C66.5207 246.075 65.7444 245.876 65.0422 245.494Z" fill="#37474F"/>
<path d="M226.588 94.1555C226.433 92.8948 225.483 92.4303 224.337 93.1381L69.5741 188.951C68.9042 189.397 68.3503 190.017 67.9636 190.753L62.6572 187.436C63.0364 186.691 63.5873 186.063 64.2574 185.611L219.01 89.8426C219.714 89.4607 220.492 89.2617 221.281 89.2617C222.071 89.2617 222.849 89.4607 223.553 89.8426L224.337 90.3181C224.947 90.7474 225.464 91.3123 225.852 91.9744C226.241 92.6365 226.492 93.3804 226.588 94.1555Z" fill="#455A64"/>
<path d="M69.1922 245.682C68.5304 245.964 67.8203 246.094 67.1086 246.061C66.3969 246.029 65.6996 245.836 65.0627 245.494L64.2677 245.007C63.609 244.544 63.0611 243.921 62.6684 243.189C62.2757 242.457 62.049 241.637 62.0068 240.794V189.857C62.0344 189.013 62.2655 188.19 62.6779 187.469L67.9843 190.786C67.5822 191.511 67.3551 192.332 67.3236 193.175V244.123C67.3029 245.472 68.0772 246.124 69.1922 245.682Z" fill="#263238"/>
<path d="M91.4604 185.523C100.287 180.071 107.442 184.318 107.442 195.011C107.442 205.705 100.277 218.721 91.4397 224.074C82.6026 229.426 75.4379 225.18 75.4483 214.585C75.4586 203.991 82.6336 190.986 91.4604 185.523Z" fill="#F5F5F5"/>
<path d="M91.8219 216.299C91.5426 216.526 91.2057 216.657 90.8555 216.674C90.5054 216.692 90.1584 216.596 89.8604 216.398L82.8402 210.714C81.9008 209.951 82.0143 207.861 83.0983 206.025C84.1823 204.189 85.8238 203.327 86.7529 204.09L91.6464 208.06L105.243 176.775C106.089 174.817 107.71 173.457 108.866 173.844C110.023 174.231 110.27 176.056 109.414 177.98L93.8866 213.7C93.4572 214.727 92.7668 215.605 91.8942 216.232L91.8219 216.299Z" fill="#0B2447"/>
<path d="M226.568 169.802L222.077 167.026C220.126 165.832 217.741 167.026 216.481 167.844L213.642 166.152C210.246 163.941 205.518 168.552 204.465 169.647L203.246 168.906C199.643 166.584 193.088 172.81 193.088 172.81V149.564L195.937 148.094L191.405 145.285C190.756 144.976 190.042 144.855 189.335 144.935C188.629 145.015 187.954 145.291 187.379 145.738C185.702 146.908 184.306 148.485 183.305 150.341C182.304 152.197 181.726 154.28 181.618 156.421V210.133C177.489 206.815 173.07 204.825 169.23 205.566C166.17 206.332 163.494 208.306 161.735 211.095C159.835 214.7 162.974 216.956 167.02 221.911C171.067 226.865 174.577 232.748 178.232 236.397C180.036 238.355 182.178 239.918 184.54 240.998V247.987L188.979 250.741L218.381 227.064V220.064C218.381 220.064 222.572 202.126 223.915 194.629C225.205 187.418 226.392 175.906 224.173 169.935L226.578 169.758L226.568 169.802Z" fill="#0B2447"/>
<path opacity="0.4" d="M226.568 169.802L222.077 167.026C220.126 165.832 217.741 167.026 216.481 167.844L213.642 166.152C210.246 163.941 205.518 168.552 204.465 169.647L203.246 168.906C199.643 166.584 193.088 172.81 193.088 172.81V149.564L195.937 148.094L191.405 145.285C190.756 144.976 190.042 144.855 189.335 144.935C188.629 145.015 187.954 145.291 187.379 145.738C185.702 146.908 184.306 148.485 183.305 150.341C182.304 152.197 181.726 154.28 181.618 156.421V210.133C177.489 206.815 173.07 204.825 169.23 205.566C166.17 206.332 163.494 208.306 161.735 211.095C159.835 214.7 162.974 216.956 167.02 221.911C171.067 226.865 174.577 232.748 178.232 236.397C180.036 238.355 182.178 239.918 184.54 240.998V247.987L188.979 250.741L218.381 227.064V220.064C218.381 220.064 222.572 202.126 223.915 194.629C225.205 187.418 226.392 175.906 224.173 169.935L226.578 169.758L226.568 169.802Z" fill="white"/>
<path d="M193.418 231.529L171.18 217.783L161.445 211.756C160.206 215.007 163.211 217.285 167.01 221.941C171.026 226.862 174.567 232.778 178.221 236.428C180.025 238.386 182.168 239.948 184.529 241.028V247.984L188.968 250.738L195.462 245.507C194.626 239.602 193.418 231.529 193.418 231.529Z" fill="#0B2447"/>
<path d="M186.067 159.194L181.628 156.44V212.785L186.067 212.906V159.194Z" fill="#0B2447"/>
<path d="M220.952 173.415L224.4 170.695C224.317 170.452 224.255 170.208 224.162 169.976L225.422 169.888L222.655 169.755L218.04 167.023C217.501 167.255 216.98 167.533 216.481 167.853L217.927 168.749L220.952 173.415Z" fill="#0B2447"/>
<path d="M208.738 172.609L211.969 169.977L207.509 167.08C206.433 167.821 205.426 168.673 204.505 169.624L207.602 171.548L208.738 172.609Z" fill="#0B2447"/>
<path d="M201.987 172.354L197.568 169.589L197.589 169.545V175.528L202.73 173.515L201.987 172.354Z" fill="#0B2447"/>
<g opacity="0.15">
<path d="M193.418 231.531L171.18 217.785L161.445 211.758C160.206 215.009 163.211 217.287 167.01 221.943C171.026 226.864 174.567 232.78 178.221 236.43C180.025 238.388 182.168 239.95 184.529 241.03V247.986L188.968 250.74L195.462 245.509C194.626 239.604 193.418 231.531 193.418 231.531Z" fill="black"/>
<path d="M186.067 159.194L181.628 156.44V212.785L186.067 212.906V159.194Z" fill="black"/>
<path d="M220.952 173.415L224.4 170.695C224.317 170.452 224.255 170.208 224.162 169.976L225.422 169.888L222.655 169.755L218.04 167.023C217.501 167.255 216.98 167.533 216.481 167.853L217.927 168.749L220.952 173.415Z" fill="black"/>
<path d="M208.738 172.607L211.969 169.976L207.509 167.078C206.433 167.819 205.426 168.671 204.505 169.622L207.602 171.546L208.738 172.607Z" fill="black"/>
<path d="M201.987 172.354L197.568 169.589L197.589 169.545V175.528L202.73 173.515L201.987 172.354Z" fill="black"/>
</g>
<path d="M188.969 250.783V243.783C186.608 242.687 184.469 241.11 182.672 239.138C179.017 235.489 175.445 229.561 171.46 224.651C167.475 219.741 164.233 217.43 166.174 213.836C167.933 211.047 170.61 209.072 173.669 208.306C177.53 207.565 181.928 209.589 186.058 212.874V159.195C186.165 157.055 186.741 154.973 187.74 153.116C188.739 151.26 190.133 149.683 191.808 148.512C194.988 146.543 197.569 148.136 197.569 152.073V175.528C197.569 175.528 205.508 167.986 208.708 172.609C208.708 172.609 216.513 163.861 220.064 171.249C220.064 171.249 225.783 166.305 228.323 172.045C230.863 177.784 229.665 189.927 228.323 197.425C226.981 204.922 222.779 222.86 222.779 222.86V229.86L188.969 250.783Z" fill="#0B2447"/>
<path d="M197.588 185.603C197.588 185.603 198.311 174.899 201.986 172.333H201.852C200.331 173.211 198.902 174.26 197.588 175.463V175.264C197.575 175.295 197.567 175.329 197.567 175.363C197.567 175.398 197.575 175.432 197.588 175.463V185.603Z" fill="#455A64"/>
<path d="M208.738 172.609V182.407C208.738 182.407 209.771 172.332 211.835 169.899C210.713 170.678 209.675 171.587 208.738 172.609Z" fill="#455A64"/>
<path d="M220.053 171.249V181.08C220.053 181.08 220.61 171.182 222.603 169.723C221.688 170.095 220.829 170.609 220.053 171.249Z" fill="#455A64"/>
<path d="M187.357 138.989C186.635 139.431 186.057 139.177 186.057 138.402V130.661C186.095 130.209 186.233 129.772 186.459 129.388C186.685 129.004 186.993 128.682 187.357 128.45C188.07 128.007 188.648 128.273 188.648 129.036V136.777C188.612 137.229 188.476 137.665 188.251 138.049C188.027 138.434 187.721 138.756 187.357 138.989Z" fill="#EBEBEB"/>
<path d="M176.477 151.256C175.971 152.185 175.155 152.693 174.65 152.362L170.448 149.763C169.942 149.453 169.942 148.436 170.448 147.551C170.954 146.611 171.769 146.102 172.275 146.445L176.477 149.044C177.024 149.298 177.024 150.316 176.477 151.256Z" fill="#EBEBEB"/>
<path d="M172.026 167.325V167.546C171.982 168.026 171.833 168.489 171.591 168.896C171.349 169.304 171.021 169.644 170.633 169.89L164.893 173.44C164.129 173.916 163.499 173.639 163.499 172.81V172.588C163.546 172.109 163.696 171.647 163.938 171.24C164.179 170.833 164.506 170.492 164.893 170.244L170.633 166.694C171.407 166.219 172.026 166.495 172.026 167.325Z" fill="#EBEBEB"/>
<path d="M202.678 148.589V148.368C202.72 147.885 202.869 147.42 203.111 147.011C203.353 146.601 203.682 146.259 204.071 146.012L209.811 142.462C210.575 141.987 211.205 142.274 211.205 143.093V143.314C211.159 143.794 211.009 144.255 210.767 144.662C210.525 145.069 210.198 145.41 209.811 145.658L204.071 149.208C203.318 149.684 202.678 149.407 202.678 148.589Z" fill="#EBEBEB"/>
<path d="M198.157 137.84C197.651 137.53 197.651 136.524 198.157 135.628L202.359 127.887C202.864 126.947 203.68 126.438 204.186 126.781C204.692 127.102 204.692 128.108 204.186 129.048L199.984 136.789C199.519 137.652 198.694 138.16 198.157 137.84Z" fill="#EBEBEB"/>
<path d="M361.498 320.111V318.851C361.034 320.321 358.886 326.68 355.635 329.909C353.043 332.442 349.502 335.361 348.604 338.181C347.706 341.001 353.528 342.107 355.944 341.654C358.763 341.112 362.397 339.442 364.379 336.799C365.772 334.963 366.66 332.796 367.651 331.347C368.642 329.898 370.934 328.306 371.481 326.636C371.771 325.718 371.419 323.705 371.007 322.013C370.594 320.321 370.212 318.751 369.716 318.895V319.868C368.539 320.854 367.081 321.377 365.587 321.35C364.368 321.35 361.488 321.084 361.498 320.111Z" fill="#263238"/>
<path d="M353.281 332.089C354.086 331.326 354.902 330.574 355.635 329.877C357.906 327.665 359.64 323.883 360.642 321.306C361.207 319.837 361.498 318.262 361.499 316.673V311.663H369.758V319.824V320.046C369.365 321.87 365.628 326.681 363.45 329.91C362.015 332.033 359.32 334.732 356.027 335.207C352.858 335.649 351.278 334.599 353.281 332.089Z" fill="#FFA8A7"/>
<path d="M329.464 311.432V310.171C328.999 311.653 326.842 318.012 323.59 321.23C320.998 323.762 317.457 326.693 316.559 329.513C315.661 332.333 321.484 333.438 323.899 332.974C326.718 332.443 330.352 330.762 332.334 328.13C333.727 326.295 334.615 324.116 335.606 322.678C336.598 321.241 338.9 319.626 339.437 317.956C339.726 317.038 339.375 315.037 338.962 313.345C338.549 311.653 338.167 310.027 337.671 310.215V311.177C336.496 312.17 335.038 312.697 333.542 312.67C332.365 312.67 329.453 312.416 329.464 311.432Z" fill="#263238"/>
<path d="M321.246 323.419C322.041 322.645 322.857 321.904 323.59 321.207C325.861 318.995 327.595 315.202 328.597 312.626C329.167 311.161 329.461 309.59 329.464 308.003V302.982H337.671V311.144V311.365C337.279 313.201 333.542 318.055 331.363 321.229C329.928 323.353 327.234 326.062 323.941 326.526C320.812 326.969 319.233 325.929 321.246 323.419Z" fill="#FFA8A7"/>
<path d="M368.084 183.348C374.454 198.244 367.847 250.74 367.847 250.74C368.043 253.151 370.624 257.917 371.584 268.555C372.72 281.129 369.798 312.702 369.798 312.702C368.551 313.474 367.148 313.909 365.709 313.971C364.271 314.033 362.839 313.719 361.539 313.056C361.539 313.056 353.714 265.503 352.248 253.007C350.947 242.092 348.449 218.128 348.449 218.128L341.439 252.963C342.461 256.479 343.204 260.083 343.658 263.734C344.329 271.088 337.671 305.326 337.671 305.326C337.671 305.326 334.842 306.431 329.463 305.591C329.463 305.591 327.109 260.151 326.49 251.293C325.458 236.419 329.133 189.994 331.652 181.191L368.084 183.348Z" fill="#37474F"/>
<path d="M348.449 218.127L346.384 204.281C346.384 204.281 337.629 202.346 333.665 198.343C336.397 201.782 339.973 204.333 343.989 205.708L346.312 216.368L342.254 248.627L348.449 218.127Z" fill="#263238"/>
<path d="M343.256 131.174C341.259 130.99 339.25 131.355 337.42 132.233C335.59 133.112 334 134.475 332.798 136.195C329.515 140.795 316.931 158.312 316.931 158.312C316.931 158.312 298.348 148.36 297.471 147.187C296.593 146.015 297.078 143.626 297.326 142.321C297.574 141.017 297.997 138.086 298.266 137.268C298.74 135.841 296.769 136.228 295.602 137.566C294.435 138.904 293.93 141.514 293.341 141.99C292.753 142.465 288.355 137.002 286.207 134.381C284.06 131.76 283.11 129.958 281.634 131.008C280.602 131.782 281.262 133.342 282.801 135.587C283.517 136.538 284.179 137.535 284.783 138.573C284.958 138.971 284.401 139.291 284.174 139.513C283.761 139.911 283.017 140.618 282.966 141.182C282.976 141.523 282.956 141.864 282.904 142.2C282.708 142.952 281.871 143.306 281.603 144.036C281.428 144.555 281.603 145.141 281.52 145.705C281.458 146.059 281.273 146.38 281.211 146.745C281.19 147.1 281.24 147.456 281.36 147.788C281.479 148.12 281.664 148.421 281.902 148.669C283.399 150.593 285.454 151.323 287.426 152.495C289.067 153.469 290.76 153.889 292.649 154.785C294.539 155.68 316.446 171.959 319.914 169.902C323.383 167.845 341.285 145.573 341.285 145.573C346.446 136.383 343.256 131.174 343.256 131.174Z" fill="#FFA8A7"/>
<path d="M356.853 131.583C365.009 132.191 365.587 136.415 367.631 141.027C369.127 144.589 369.264 148.637 368.013 152.307L362.304 169.934C362.304 169.934 364.968 176.835 368.065 183.349C353.787 191.886 335.958 187.396 331.663 181.137C331.478 179.81 332.582 169.481 333.264 162.735C330.745 155.978 330.084 151.676 331.147 147.253C333.119 138.959 340.759 130.886 344.145 131.173L356.853 131.583Z" fill="#F5F5F5"/>
<path d="M348.996 124.338H352.165C354.359 124.338 356.532 123.875 358.558 122.975C360.585 122.075 362.426 120.756 363.977 119.093C365.527 117.43 366.756 115.456 367.594 113.284C368.432 111.112 368.861 108.784 368.859 106.434C368.856 101.667 367.086 97.0964 363.938 93.7266C360.791 90.3568 356.523 88.4639 352.072 88.4639H349.089C344.648 88.4785 340.395 90.3783 337.26 93.7468C334.125 97.1153 332.364 101.678 332.364 106.434C332.356 111.17 334.103 115.716 337.221 119.073C340.34 122.43 344.575 124.324 348.996 124.338Z" fill="#263238"/>
<path d="M377.789 133.761C375.175 133.759 372.669 132.645 370.82 130.665C368.972 128.685 367.932 126 367.93 123.2V100.574C369.225 100.574 370.508 100.848 371.705 101.379C372.902 101.911 373.989 102.69 374.905 103.671C375.82 104.653 376.546 105.819 377.041 107.101C377.536 108.384 377.79 109.759 377.789 111.146V133.761Z" fill="#263238"/>
<path d="M369.737 96.5703L367.27 100.817C367.521 101.005 367.806 101.137 368.107 101.204C368.408 101.271 368.718 101.272 369.019 101.207C369.32 101.142 369.606 101.012 369.859 100.825C370.112 100.638 370.327 100.398 370.491 100.12C370.814 99.5377 370.915 98.8447 370.775 98.1841C370.635 97.5235 370.263 96.9458 369.737 96.5703Z" fill="#263238"/>
<path d="M338.311 96.4023C336.381 97.6188 333.996 102.816 334.233 113.72C334.429 122.965 337.227 125.243 338.631 125.885C340.035 126.526 342.761 126.139 345.373 125.664V131.193C345.373 131.193 341.739 135.716 341.966 138.26C342.193 140.803 347.22 141.4 350.627 138.923C352.832 137.217 354.725 135.092 356.212 132.653V119.294C356.488 119.658 356.829 119.959 357.214 120.18C357.6 120.401 358.022 120.538 358.458 120.582C358.893 120.626 359.332 120.577 359.75 120.438C360.167 120.298 360.555 120.071 360.889 119.769C363.8 117.701 363.914 112.581 362.221 110.746C360.528 108.91 356.884 109.496 356.212 112.028C356.212 112.028 352.011 112.194 346.426 108.91C344.25 107.655 342.382 105.869 340.972 103.696C339.562 101.522 338.65 99.0237 338.311 96.4023Z" fill="#FFA8A7"/>
<path d="M344.825 111.398C344.816 111.627 344.869 111.854 344.979 112.05C345.09 112.246 345.252 112.403 345.445 112.501C345.638 112.599 345.854 112.634 346.066 112.6C346.277 112.567 346.475 112.467 346.634 112.314C346.793 112.161 346.906 111.961 346.959 111.739C347.011 111.517 347.002 111.283 346.931 111.067C346.86 110.851 346.731 110.662 346.561 110.524C346.39 110.386 346.185 110.306 345.971 110.292C345.685 110.286 345.407 110.396 345.194 110.602C344.981 110.807 344.849 111.092 344.825 111.398Z" fill="#263238"/>
<path d="M343.577 119.24L341.058 120.092C341.103 120.272 341.181 120.441 341.288 120.588C341.395 120.735 341.529 120.857 341.681 120.948C341.833 121.039 342.001 121.096 342.174 121.116C342.347 121.136 342.522 121.119 342.689 121.065C343.029 120.943 343.311 120.685 343.477 120.345C343.642 120.004 343.678 119.608 343.577 119.24Z" fill="#F28F8F"/>
<path d="M335.937 107.837L338.125 106.201C338.033 106.043 337.913 105.907 337.77 105.801C337.628 105.696 337.466 105.622 337.297 105.584C337.127 105.547 336.951 105.547 336.782 105.585C336.612 105.622 336.451 105.696 336.308 105.803C336.015 106.026 335.812 106.362 335.743 106.741C335.674 107.119 335.743 107.512 335.937 107.837Z" fill="#263238"/>
<path d="M336.493 110.56C336.482 110.716 336.5 110.873 336.546 111.021C336.592 111.169 336.666 111.306 336.762 111.423C336.858 111.541 336.975 111.636 337.106 111.705C337.238 111.773 337.38 111.812 337.526 111.821C337.749 111.84 337.973 111.788 338.168 111.671C338.364 111.553 338.522 111.376 338.623 111.161C338.723 110.947 338.762 110.705 338.734 110.467C338.705 110.229 338.611 110.005 338.463 109.825C338.316 109.644 338.121 109.515 337.904 109.454C337.687 109.393 337.459 109.402 337.247 109.481C337.035 109.56 336.851 109.705 336.716 109.897C336.582 110.09 336.504 110.32 336.493 110.56Z" fill="#263238"/>
<path d="M341.738 109.895L341.563 116.895L338.125 115.756L341.738 109.895Z" fill="#F28F8F"/>
<path d="M345.372 125.688C348.149 125.301 353.858 123.543 354.746 121.132C354.387 122.355 353.688 123.431 352.743 124.217C351.04 125.777 345.372 127.535 345.372 127.535V125.688Z" fill="#F28F8F"/>
<path opacity="0.1" d="M353.198 185.006C354.317 184.73 355.373 184.218 356.304 183.498C357.236 182.779 358.023 181.868 358.622 180.819C359.22 179.769 359.616 178.602 359.787 177.386C359.959 176.17 359.902 174.929 359.619 173.737C359.454 173.01 359.064 172.365 358.513 171.905C357.962 171.445 357.283 171.199 356.584 171.205C357.501 170.554 358.288 169.716 358.901 168.739C359.514 167.762 359.941 166.664 360.156 165.51L361.891 154.451C362.1 152.65 361.949 150.821 361.447 149.087L367.187 141.977L368.219 142.762C369.091 145.885 369.008 149.225 367.982 152.294L362.304 169.933C362.304 169.933 364.967 176.834 368.064 183.347C363.422 186.03 358.297 187.615 353.035 187.996C347.772 188.378 342.495 187.547 337.558 185.559C342.757 186.432 348.064 186.244 353.198 185.006Z" fill="black"/>
<path d="M382.693 175.473C375.28 143.016 369.799 132.19 360.796 132.344C358.164 135.662 358.897 145.88 363.047 152.051C363.047 152.051 372.338 172.985 373.794 180.428C375.084 186.963 376.561 195.191 376.468 200.809C376.439 201.806 376.072 202.757 375.435 203.485C373.742 205.454 373.742 207.035 372.638 209.203C371.781 210.906 370.841 211.547 371.11 211.923C371.464 212.327 371.947 212.575 372.463 212.616C372.979 212.657 373.491 212.488 373.897 212.144C374.677 211.513 375.372 210.768 375.962 209.932C375.67 212.015 375.107 214.044 374.289 215.959C372.39 220.549 372.854 222.893 378.636 221.257C382.259 220.228 384.541 216.999 385.088 207.654C385.35 204.218 385.381 200.766 385.181 197.325C384.448 188.479 383.89 180.693 382.693 175.473Z" fill="#FFA8A7"/>
<path d="M309.147 268.261C309.942 236.666 307.577 229.102 299.731 223.318L296.686 241.621C296.686 241.621 300.258 263.185 299.876 270.373C299.546 276.688 298.967 284.584 297.574 289.682C297.329 290.601 296.773 291.389 296.015 291.894C294.012 293.232 293.207 294.603 291.7 296.317C290.523 297.644 289.521 297.965 289.635 298.385C289.863 298.849 290.245 299.204 290.706 299.38C291.167 299.556 291.672 299.541 292.123 299.336C293.122 298.905 294.071 298.352 294.952 297.688C294.259 299.625 293.28 301.428 292.051 303.03C289.243 306.712 289.119 308.979 294.786 309.035C298.327 309.035 301.156 306.723 303.83 298.352C304.867 295.282 305.698 292.137 306.318 288.941C307.722 280.592 309.023 273.348 309.147 268.261Z" fill="#B16668"/>
<path d="M293.135 220.919C296.882 220.333 301.972 221.174 305.265 227.477C308.558 233.78 309.395 244.629 309.735 255.411C309.735 255.411 303.2 261.261 295.354 258.386L293.135 220.919Z" fill="#0B2447"/>
<path opacity="0.1" d="M293.135 220.919C296.882 220.333 301.972 221.174 305.265 227.477C308.558 233.78 309.395 244.629 309.735 255.411C309.735 255.411 303.2 261.261 295.354 258.386L293.135 220.919Z" fill="black"/>
<path d="M304.151 394.664C304.739 394.907 304.894 396.123 304.987 398.534C305.049 400.359 305.42 403.555 303.418 404.185C301.415 404.816 298.493 404.495 297.223 402.781C295.623 400.569 294.549 398.733 292.268 396.145C290.286 393.867 288.138 391.722 287.354 388.559C286.631 385.673 287.23 384.423 289.068 383.583C291.587 382.477 295.561 386.204 297.533 386.79C299.226 387.321 303.552 394.42 304.151 394.664Z" fill="#263238"/>
<path d="M304.15 392.428V395.392C303.11 396.104 301.909 396.499 300.676 396.534C299.443 396.569 298.224 396.243 297.15 395.591C297.037 395.303 296.428 391.355 296.428 391.355L304.15 392.428Z" fill="#B16668"/>
<path d="M281.778 411.748C282.261 413.336 282.667 414.949 282.996 416.581C283.337 418.372 283.822 421.369 283.244 422.718C282.666 424.067 280.374 424.93 276.823 424.93C274.531 424.93 270.959 426.578 268.512 428.038C266.065 429.497 260.718 430.15 258.044 429.818C254.895 429.42 251.633 427.462 251.116 426.058C250.6 424.654 251.282 423.216 258.715 419.821C258.787 419.821 269.039 416.216 272.631 411.969L281.778 411.748Z" fill="#263238"/>
<path d="M281.778 408.54C281.778 408.54 281.778 410.752 281.778 412.001C281.778 413.251 280.405 415.131 276.813 414.987C274.294 414.899 272.539 414.169 272.683 411.946V408.739L281.778 408.54Z" fill="#B16668"/>
<path d="M305.946 353.095C305.334 347.832 304.241 342.647 302.684 337.613C302.684 337.613 303.665 324.342 304.14 311.669C304.656 298.023 304.14 280.882 304.356 277.475C304.356 277.475 263.268 268.628 262.535 284.332C261.802 300.035 264.156 340.245 264.6 347.168C265.044 354.09 266.2 360.228 267.542 371.497C268.884 382.766 272.549 408.743 272.549 408.743C273.971 409.517 275.55 409.905 277.146 409.87C278.741 409.835 280.304 409.38 281.696 408.543C281.696 408.543 284.586 377.015 284.287 369.02C284.054 363.1 283.103 357.237 281.458 351.58C281.458 351.58 282.233 338.575 282.924 327.251C283.616 315.927 284.339 310.508 284.494 305.598L285.381 305.122C285.381 305.122 286.28 324.63 286.765 331.564C287.25 338.497 288.282 345.133 290.151 357.994C291.782 369.163 296.614 392.774 296.614 392.774C301.301 395.494 304.109 392.42 304.109 392.42C304.109 392.42 307.216 362.782 305.946 353.095Z" fill="#37474F"/>
<path d="M284.535 305.608C284.535 305.608 294.508 300.344 299.494 295.6C299.494 295.6 294.859 302.589 288.778 305.685C288.778 305.685 286.621 329.926 286.631 329.439L285.382 305.564L284.535 305.608Z" fill="#263238"/>
<path d="M275.667 215.919L278.103 230.251L290.182 229.311L287.653 213.055L275.667 215.919Z" fill="#B16668"/>
<path d="M302.952 228.262C301.754 224.369 297.14 220.123 292.525 221.041C285.662 222.29 278.897 224.097 272.29 226.448C268.058 228.074 264.207 231.978 263.856 246.885C263.856 246.885 262.442 281.631 262.421 288.344C273.034 292.845 284.101 292.712 290.181 291.286C302.9 288.311 304.428 282.66 304.428 282.66C304.428 282.66 304.593 257.678 304.211 246.885C303.891 237.717 303.778 230.938 302.952 228.262Z" fill="#0B2447"/>
<path d="M266.344 198.481C266.344 198.481 263.247 203.723 263.649 204.221C264.052 204.719 266.365 205.117 266.365 205.117L266.344 198.481Z" fill="#B16668"/>
<path d="M274.851 184.005C268.461 185.609 266.675 188.672 266.293 199.62C265.9 211.055 267.067 214.616 268.502 216.12C269.462 217.137 274.696 217.226 277.36 216.352C280.653 215.246 288.096 212.26 291.483 206.399C295.468 199.543 296.366 190.364 291.865 186.704C285.526 181.628 277.453 183.342 274.851 184.005Z" fill="#B16668"/>
<path d="M275.801 216.706C277.969 214.837 277.773 213.632 277.773 213.632C276.224 215.191 270.464 216.518 268.481 216.12C269.297 217.016 273.045 217.149 275.801 216.706Z" fill="#9A4A4D"/>
<path d="M266.365 186.847C268.244 190.287 272.312 191.934 272.312 191.934C273.54 193.427 272.859 199.266 275.016 200.184C275.016 200.184 275.945 195.938 279.28 196.391C282.615 196.844 283.182 201.401 281.128 204.221C279.074 207.041 277.102 206.034 277.102 206.034C277.102 206.034 277.329 212.061 279.899 215.423C279.899 215.423 282.759 216.341 287.952 215.014C291.152 214.207 295.602 209.794 297.409 205.205C301.249 195.473 301.342 186.803 295.55 184.348C294.838 179.925 291.534 178.011 287.797 177.182C279.755 175.413 274.572 180.787 268.378 180.323C264.827 180.057 264.166 182.811 266.365 186.847Z" fill="#263238"/>
<path d="M295.684 185.828L299.473 183.307C299.161 182.769 298.662 182.385 298.086 182.241C297.51 182.097 296.904 182.204 296.402 182.538C295.9 182.873 295.542 183.407 295.407 184.024C295.273 184.641 295.372 185.29 295.684 185.828Z" fill="#263238"/>
<path d="M272.621 226.393C272.621 226.393 266.613 227.587 263.474 232.674C260.336 237.761 246.75 256.008 246.75 256.008C246.75 256.008 227.217 245.535 226.257 244.286C225.297 243.036 225.834 240.537 226.103 239.154C226.371 237.772 226.805 234.731 227.135 233.846C227.63 232.331 225.555 232.74 224.327 234.145C223.098 235.549 222.561 238.303 221.952 238.778C221.343 239.254 216.687 233.525 214.437 230.761C212.186 227.996 211.123 226.061 209.605 227.2C208.521 228.029 209.223 229.666 210.834 232.033C211.591 233.025 212.281 234.075 212.898 235.173C213.095 235.593 212.496 235.936 212.269 236.157C211.825 236.578 211.051 237.263 210.989 237.927C211.021 238.295 211.021 238.665 210.989 239.033C210.772 239.818 209.863 240.139 209.605 240.957C209.419 241.521 209.605 242.14 209.523 242.726C209.45 243.102 209.265 243.434 209.192 243.832C209.172 244.208 209.227 244.583 209.354 244.934C209.48 245.285 209.675 245.603 209.925 245.867C211.505 247.891 213.673 248.665 215.748 249.892C217.472 250.921 219.258 251.363 221.25 252.314C223.243 253.265 246.657 271.8 250.312 269.643C253.966 267.487 272.694 244.042 272.694 244.042C274.276 241.408 275.111 238.339 275.098 235.206C275.085 232.073 274.225 229.012 272.621 226.393Z" fill="#B16668"/>
<path d="M274.717 225.642C272.136 225.951 268.523 225.443 263.454 231.259C259.385 236.251 255.593 241.495 252.098 246.963C252.764 249.836 254.19 252.441 256.204 254.468C258.218 256.494 260.735 257.855 263.454 258.386C263.454 258.386 272.312 248.666 274.81 243.302C277.308 237.939 277.752 229.247 274.717 225.642Z" fill="#0B2447"/>
<path opacity="0.1" d="M274.717 225.642C272.136 225.951 268.523 225.443 263.454 231.259C259.385 236.251 255.593 241.495 252.098 246.963C252.764 249.836 254.19 252.441 256.204 254.468C258.218 256.494 260.735 257.855 263.454 258.386C263.454 258.386 272.312 248.666 274.81 243.302C277.308 237.939 277.752 229.247 274.717 225.642Z" fill="black"/>
</svg>
